<svg xmlns="http://www.w3.org/2000/svg" viewBox="0 0 100 100" width="100" height="100">
  <defs>
    <linearGradient id="grad" x1="0%" y1="0%" x2="100%" y2="100%">
      <stop offset="0%" stop-color="#2563eb" />
      <stop offset="50%" stop-color="#7c3aed" />
      <stop offset="100%" stop-color="#dc2626" />
    </linearGradient>
    <filter id="shadow" x="-10%" y="-10%" width="120%" height="120%">
      <feDropShadow dx="0" dy="4" stdDeviation="4" flood-opacity="0.3" />
    </filter>
  </defs>
  
  <circle cx="50" cy="50" r="45" fill="url(#grad)" filter="url(#shadow)" />
  <circle cx="50" cy="50" r="36" fill="#ffffff" />
  
  <path d="M50 22 C38.4 22 29 31.4 29 43 C29 61 50 78 50 78 C50 78 71 61 71 43 C71 31.4 61.6 22 50 22 Z M50 51 C45.58 51 42 47.42 42 43 C42 38.58 45.58 35 50 35 C54.42 35 58 38.58 58 43 C58 47.42 54.42 51 50 51 Z" fill="url(#grad)" />
</svg>